<svg width="112" height="133" viewBox="0 0 112 133" fill="none" xmlns="http://www.w3.org/2000/svg">
<path d="M13.0569 114.475C12.8601 114.669 12.5436 114.666 12.3498 114.47L9.19292 111.263C8.99919 111.066 9.00168 110.749 9.19847 110.556C9.39526 110.362 9.71183 110.364 9.90555 110.561L12.7117 113.412L15.5622 110.606C15.759 110.412 16.0756 110.414 16.2693 110.611C16.463 110.808 16.4606 111.124 16.2638 111.318L13.0569 114.475ZM111.185 27.2306C64.9188 27.5949 13.632 59.8465 13.2061 114.123L12.2062 114.115C12.6378 59.0954 64.5857 26.5975 111.177 26.2306L111.185 27.2306Z" fill="#676767"/>
</svg>
