<svg width="12" height="12" viewBox="0 0 12 12" fill="none" xmlns="http://www.w3.org/2000/svg">
<path fill-rule="evenodd" clip-rule="evenodd" d="M10.9995 6C10.9995 8.76142 8.76094 11 5.99951 11C3.23809 11 0.999512 8.76142 0.999512 6C0.999512 3.23858 3.23809 1 5.99951 1C8.76094 1 10.9995 3.23858 10.9995 6ZM11.9995 6C11.9995 9.31371 9.31322 12 5.99951 12C2.6858 12 -0.000488281 9.31371 -0.000488281 6C-0.000488281 2.68629 2.6858 0 5.99951 0C9.31322 0 11.9995 2.68629 11.9995 6ZM5.99951 9C7.65637 9 8.99951 7.65685 8.99951 6C8.99951 4.34315 7.65637 3 5.99951 3C4.34266 3 2.99951 4.34315 2.99951 6C2.99951 7.65685 4.34266 9 5.99951 9Z" fill="#236967"/>
</svg>
